<mxfile host="app.diagrams.net" modified="2024-06-17T08:33:08.845Z" agent="Mozilla/5.0 (Windows NT 10.0; Win64; x64) AppleWebKit/537.36 (KHTML, like Gecko) Chrome/126.0.0.0 Safari/537.36 Edg/126.0.0.0" version="24.5.4" etag="nj_0aDTSgO-TsaEYjUTQ" type="github">
  <diagram name="Page-1" id="u5WdyKpmLq1f9wdWZwxd">
    <mxGraphModel>
      <root>
        <mxCell id="0" />
        <mxCell id="1" parent="0" />
      </root>
    </mxGraphModel>
  </diagram>
</mxfile>
